<svg width="256" height="256" viewBox="0 0 256 256" fill="none" xmlns="http://www.w3.org/2000/svg">
  <rect width="256" height="256" rx="64" fill="#0A0A09"/>
  <rect x="20" y="20" width="216" height="216" rx="48" fill="url(#paint0_linear)"/>
  <rect x="20.5" y="20.5" width="215" height="215" rx="47.5" stroke="white" stroke-opacity="0.16"/>
  <circle cx="86" cy="68" r="88" fill="#FFD899" fill-opacity="0.28"/>
  <path d="M62 178V78H91.5L128 136.5L164.5 78H194V178H165V123.5L138.5 166H117.5L91 123.5V178H62Z" fill="#FFF1D1"/>
  <path d="M62 178V78H91.5L128 136.5L164.5 78H194V178H165V123.5L138.5 166H117.5L91 123.5V178H62Z" fill="url(#paint1_linear)" fill-opacity="0.45"/>
  <defs>
    <linearGradient id="paint0_linear" x1="40" y1="28" x2="222" y2="235" gradientUnits="userSpaceOnUse">
      <stop stop-color="#2B2A26"/>
      <stop offset="0.52" stop-color="#151411"/>
      <stop offset="1" stop-color="#0D0C0B"/>
    </linearGradient>
    <linearGradient id="paint1_linear" x1="80" y1="88" x2="167" y2="181" gradientUnits="userSpaceOnUse">
      <stop stop-color="#FFD899"/>
      <stop offset="1" stop-color="#A87D45"/>
    </linearGradient>
  </defs>
</svg>
